<svg xmlns="http://www.w3.org/2000/svg" width="160" height="40" viewBox="0 0 160 40">
  <defs>
    <style>
      .cls-1 {
        fill: #3c1f5d;
      }

      .cls-1, .cls-2 {
        fill-rule: evenodd;
      }

      .cls-2 {
        fill: #e56a25;
      }
    </style>
  </defs>
  <path class="cls-1" d="M94.167,35.563a3.422,3.422,0,0,0,1.7-3.16c0-2.218-1.566-3.595-4.088-3.595H87.82V38.946h2.172V36.114h1.787c0.1,0,.2,0,0.3-0.007l1.834,2.839h2.57Zm-0.435-3.134c0,0.658-.2,1.532-1.953,1.532H89.993v-3h1.787c1.75,0,1.953.837,1.953,1.468m-68.54.319c-1.231-.377-1.771-0.6-1.771-1.166,0-.448.709-0.61,1.317-0.61a3.989,3.989,0,0,1,2.133.659l0.566,0.38,0.916-2.034L27.947,29.7a5.818,5.818,0,0,0-3.146-.932c-2.186,0-3.656,1.166-3.656,2.9,0,2.167,1.853,2.721,3.206,3.127,1.248,0.374,1.8.6,1.792,1.191,0,0.745-1.154.8-1.507,0.8a3.842,3.842,0,0,1-2.562-1.1l-0.566-.555-1,2.021,0.308,0.3a5.615,5.615,0,0,0,3.807,1.533c2.271,0,3.8-1.222,3.8-3.042,0.008-2.2-1.861-2.777-3.226-3.2m14.1,2.147h4.62V32.744h-4.62V30.962h5.17V28.809H37.07V38.946h7.562V36.807h-5.34V34.9ZM60.024,35.9a3.281,3.281,0,0,1-2.234.918,3.006,3.006,0,0,1-3.047-2.955A2.971,2.971,0,0,1,57.79,30.91a3.123,3.123,0,0,1,2.218.953l0.46,0.474,1.345-1.722-0.386-.366a5.359,5.359,0,0,0-3.651-1.465A5.108,5.108,0,1,0,57.738,39a5.466,5.466,0,0,0,3.7-1.543l0.409-.389L60.457,35.49Zm16.415-1.23a2.143,2.143,0,1,1-4.285,0V28.809H69.981v5.864a4.316,4.316,0,1,0,8.632,0V28.809H76.439v5.864Zm28.477,4.273h2.172V28.809h-2.172V38.946Zm10.428-8.022h2.9v7.986h2.173V30.924h2.912V28.771h-7.983v2.153Zm22.5-2.115-2.528,4.152-2.562-4.152h-2.385l3.876,6.675v3.462H136.4v-3.5l3.805-6.635H137.84ZM0,21.06H3.271V13.218H11.75V10H3.271V4.776h9.464V1.556H0v19.5Zm17.177-8.39,19.348,8.748V17.872L21.615,11.259,36.525,4.6V1L17.177,9.719V12.67ZM57.613,8.3c0-4.225-2.9-6.746-7.754-6.746h-7.5V4.78l7.5,0c3.027,0,4.562,1.2,4.562,3.579,0,2.462-1.535,3.71-4.562,3.71H45.634V5.908H42.363V21.06h3.271V15.283h4.225c0.305,0,.612-0.013.907-0.031l3.748,5.809h3.822l-4.468-6.536A6.343,6.343,0,0,0,57.613,8.3M72.271,9.568C69.777,8.8,68.247,8.25,68.247,6.629c0-1.347,1.687-1.828,3.267-1.828a8.706,8.706,0,0,1,4.672,1.442l0.585,0.393,1.382-3.072L77.734,3.28a11.26,11.26,0,0,0-6.09-1.8c-4.111,0-6.874,2.144-6.874,5.334,0,3.984,3.395,5,6.121,5.817,2.529,0.757,4.078,1.307,4.07,2.992,0,1.39-1.366,2.219-3.655,2.219a8.43,8.43,0,0,1-5.626-2.417l-0.585-.573-1.5,3.016,0.319,0.306a10.859,10.859,0,0,0,7.363,2.964c4.281,0,7.158-2.259,7.158-5.619,0.015-4.055-3.413-5.107-6.167-5.952M86.034,21.061h3.271V1.557H86.034v19.5ZM106.6,4.671a7.707,7.707,0,0,1,5.1,1.964l0.48,0.433,1.926-2.531-0.419-.372A10.8,10.8,0,0,0,106.6,1.5a9.834,9.834,0,1,0-.1,19.659,11.74,11.74,0,0,0,7.114-2.536l0.225-.181V10.915H110.8v5.792a7.976,7.976,0,0,1-4.173,1.265,6.789,6.789,0,0,1-6.894-6.664A6.764,6.764,0,0,1,106.6,4.671m28.628,5.146h-9.746V1.556h-3.271v19.5h3.271V13.009h9.746V21.06H138.5V1.556h-3.271V9.817Zm9.651-8.26V4.776h5.911V21.061h3.271V4.776H160V1.557H144.88Z"/>
  <path id="Shape_5_copy" data-name="Shape 5 copy" class="cls-2" d="M28.2,11.156c0-1.58.54-1.975,1.194-2.272,0.518-.234,2.859-1.259,2.859-1.259V14.96s-2.49-1.086-2.978-1.333-1.075-.889-1.075-2.47"/>
</svg>
